<?xml version="1.0" encoding="UTF-8" standalone="no"?>
<svg
   xmlns:dc="http://purl.org/dc/elements/1.1/"
   xmlns:cc="http://creativecommons.org/ns#"
   xmlns:rdf="http://www.w3.org/1999/02/22-rdf-syntax-ns#"
   xmlns:svg="http://www.w3.org/2000/svg"
   xmlns="http://www.w3.org/2000/svg"
   viewBox="0 0 246.66667 308.54666"
   height="308.54666"
   width="246.66667"
   xml:space="preserve"
   id="svg2"
   version="1.1"><metadata
     id="metadata8"><rdf:RDF><cc:Work
         rdf:about=""><dc:format>image/svg+xml</dc:format><dc:type
           rdf:resource="http://purl.org/dc/dcmitype/StillImage" /></cc:Work></rdf:RDF></metadata><defs
     id="defs6" /><g
     transform="matrix(1.3333333,0,0,-1.3333333,0,308.54667)"
     id="g10"><g
       transform="scale(0.1)"
       id="g12"><path
         id="path14"
         style="fill:#171514;fill-opacity:1;fill-rule:nonzero;stroke:none"
         d="m 1170.26,662.48 c -0.75,0 -1.73,0.071 -2.52,0.141" /><path
         id="path16"
         style="fill:#ee5a1a;fill-opacity:1;fill-rule:nonzero;stroke:none"
         d="m 854.563,1715.75 c -0.321,2.05 -0.43,4.28 -0.43,6.53 -0.656,32.31 30.023,67.69 30.98,103.61 l 0.18,0.15 v 0.83 c -0.301,6.36 -4.77,10.5 -9.188,12.47 -4.55,2.06 -9.839,2.89 -15.683,2.89 -14.016,-0.17 -31.496,-5.23 -40.848,-19.54 -15.144,-31.63 -39.203,-64.89 -39.433,-99.2 -0.106,-10.84 2.656,-21.85 9.058,-32.28 13.254,-29.25 31.188,-55.48 45.039,-86.85 2.442,-5.7 3.532,-10.84 3.532,-15.63 0,-9.37 -4.211,-18.07 -11.692,-26.5 -2.277,-3.1 -17.394,-2.46 -25.101,-15.06 l -0.36,-0.77 -0.125,-0.92 c -0.355,-1.59 -0.512,-3.14 -0.512,-4.71 0.106,-13.15 10.36,-21.44 21.391,-25.69 6.492,-2.47 12.629,-3.45 18.719,-3.45 23.23,0.12 42.82,14.53 53.015,30.92 7.641,12.89 10.813,25.72 10.813,38.31 -0.809,48.81 -44.141,91.55 -49.355,134.89" /><path
         id="path18"
         style="fill:#ee5a1a;fill-opacity:1;fill-rule:nonzero;stroke:none"
         d="m 1032.66,1656.34 c -25.02,35.99 -28.88,41.38 -42.433,68.66 -3.153,6.53 -9.286,16.28 -9.286,27.5 0.192,8.58 3.235,18.32 15.614,29.45 7.025,6.38 9.645,16.19 9.645,26.1 0,11.93 -4.03,24.7 -13.762,32.91 -9.348,6.29 -17.59,9.38 -25.5,9.38 -16.672,-0.15 -27.297,-13.09 -34.942,-28.32 -7.906,-15.66 -13.781,-35.39 -19.726,-53.82 -2.325,-7.57 -3.489,-15.02 -3.489,-22.38 0.852,-55.74 60.571,-99.13 73.676,-150.84 1.527,-5.24 2.266,-10.46 2.266,-15.36 0,-12.21 -4.18,-24.67 -9.391,-38.82 -1.449,-3.87 -2.246,-7.86 -2.246,-11.46 0.117,-16.96 15.309,-25.91 28.924,-25.91 h 0.16 c 7.62,0 15.72,2.73 21.62,8.86 28.19,29.1 38.95,53.75 38.95,75.69 -0.06,27.87 -16.59,48.93 -30.08,68.36" /><path
         id="path20"
         style="fill:#ee5a1a;fill-opacity:1;fill-rule:nonzero;stroke:none"
         d="m 541.488,1661.18 c -4.965,9.88 -6.496,21.53 -6.496,34.05 0,16.71 2.887,34.86 2.887,52.22 0,9.89 -0.832,19.48 -4.059,28.42 -2.906,7.27 -10.047,9.18 -15.957,9.18 -15.968,-0.57 -39.058,-11.74 -44.968,-33.1 -2.707,-24.3 -9.047,-50.62 -9.168,-75.21 -0.043,-21.83 6.371,-42.01 23.906,-58.75 27.027,-25.78 55.586,-46.16 71.609,-68.81 6.531,-9.23 10.281,-16.34 10.379,-24.5 0,-5.5 -1.379,-11.22 -3.957,-17.45 -4.383,-7.42 -15.723,-24.25 -17.676,-36.05 l -0.148,-0.86 0.148,-0.92 c 0,-5.57 5.52,-11.31 10.543,-11.31 0.313,0 0.61,0.09 0.992,0.09 6.141,0.32 10.563,2.52 15.711,2.52 0.438,0 0.723,0 0.84,-0.06 h 0.406 0.407 2.242 c 31.043,0.06 51.289,25 56.543,47.9 1.141,5.39 1.492,10.4 1.492,15.25 -1.156,61.98 -73.457,91.32 -95.676,137.39" /><path
         id="path22"
         style="fill:#ee5a1a;fill-opacity:1;fill-rule:nonzero;stroke:none"
         d="m 722.824,1672.86 c -22.984,38.1 -54.605,72.48 -57.929,109.86 0.082,0.12 0.082,0.42 1.367,1.09 4.656,3.94 20.406,5.64 30.941,9.91 6.449,1.75 15.16,5.29 22.77,9.87 7.265,4.7 14.863,9.48 15.453,19.43 0.094,4.5 -2.688,8.93 -6.555,11.65 -12.344,7.31 -25.844,10.45 -39.387,10.45 -40.777,-0.12 -83.589,-27.4 -94.023,-66.42 -1.441,-6.19 -2.301,-12.24 -2.301,-18.14 1.063,-57.94 65.996,-98.66 82.535,-150.81 l 0.125,-0.31 c 2.25,-6.36 3.141,-12.3 3.223,-18.44 0,-11.21 -3.223,-22.85 -7.09,-36.05 -1.035,-2.62 -1.344,-5.6 -1.344,-8.28 -0.222,-7.21 3.719,-13.34 9.016,-16.45 5.152,-3.22 11.348,-4.51 17.684,-4.51 12.089,0.11 25.238,4.25 33.289,13.03 13.625,17.51 19.015,36.21 18.968,54.46 -0.035,29.05 -12.851,56.95 -26.742,79.66" /><path
         id="path24"
         style="fill:#171514;fill-opacity:1;fill-rule:nonzero;stroke:none"
         d="m 1170.26,662.48 c -0.75,0 -1.73,0.071 -2.52,0.141" /><path
         id="path26"
         style="fill:#171514;fill-opacity:1;fill-rule:nonzero;stroke:none"
         d="m 594.875,1011.18 c 0.109,14.12 4.793,30.39 11.785,39.2 5.602,6.96 12.324,14.75 21.41,22.55 l 7.934,-33.45 c -17.121,-8.48 -30.281,-17.92 -41.129,-28.3 m 743.275,188.91 c -27.47,14.28 -63.39,22.35 -102.94,22.35 -0.49,0 -0.95,-0.06 -1.44,-0.06 -36.6,91.66 -82.87,160.01 -138.12,203.24 -70.23,54.53 -160.689,83.34 -261.587,83.34 -50.125,0 -101.875,-7.64 -153.5,-21.01 -3.708,9.78 -7.309,19.66 -11.692,28.69 -2.168,4.49 -9.387,7.12 -14.363,2.9 -4.43,-4.18 -8.156,-11.97 -6.106,-20.67 1.34,-6.58 1.364,-13.18 1.004,-19.76 -28.66,-8.88 -57.187,-19.02 -85.191,-31.78 l -14.36,-6.71 c -4.664,-2.17 -7.16,-7.32 -5.984,-12.33 l 18.063,-76.23 c -7.86,-7.09 -15.692,-14.5 -24.079,-20.82 -7.507,-5.47 -8.507,-21.66 -2.199,-23.5 12.891,-3.33 25.481,-4.65 37.922,-4.83 l 18.68,-78.81 c -0.285,-0.71 -0.504,-1.49 -0.793,-2.19 -2.117,-5.23 -5.34,-10.6 -7.137,-14.75 -4.351,-9.68 4.067,-20.89 9.113,-17.97 2.149,1.29 3.985,3 6.032,4.42 l 20.507,-86.54 c -18.238,-12.48 -30.25,-25.73 -38.792,-37.16 -12.969,-17.28 -18.34,-39.14 -18.508,-59.72 0,-11.85 1.883,-23.26 6.629,-33.631 0.199,-0.457 0.691,-0.84 0.918,-1.297 -4.887,-13.082 -7.125,-26.84 -7.079,-40.782 0,-5.46 0.348,-11.128 0.813,-16.89 2.359,-30.879 21.293,-54.328 45.719,-68 21.894,-12.219 48.418,-18.121 75.906,-19.41 l 83.715,-353.27 c 0.801,-3.269 3.066,-6.051 6.168,-7.43 1.398,-0.609 2.91,-0.921 4.414,-0.921 1.812,0 3.605,0.453 5.226,1.32 l 22.106,12.101 c 20.805,11.399 54.207,30.961 95.223,59.461 14.714,10.18 27.546,14.379 46.003,14.547 14.696,0 31.352,-4.367 50.633,-9.476 24.826,-6.59 52.956,-14.043 85.756,-14.313 13.97,0 28.09,1.563 41.93,4.66 35.71,7.782 64.98,29.09 80.23,58.36 10.11,19.222 15.29,41.242 15.44,65.551 0,6.789 -0.52,11.98 -0.81,15.269 -0.75,34.621 -19.05,71.133 -36.73,106.473 l -5.65,11.347 c -30.38,58.473 -36.26,80.192 -35.85,88.25 0.05,0.832 0.07,1.493 -0.12,1.621 6.51,5 33.69,15.11 69.16,23.629 16.11,3.993 31.47,7.961 44.07,12.071 6.3,2.191 12.49,4.5 18.28,7.98 4.12,2.211 7.63,4.942 11.27,8.828 5.73,6.594 8.91,14.774 8.91,23.114 -0.1,18.558 -3.81,52.628 -12.08,94.918 20.55,3.77 39.43,9.65 55.27,17.78 26.81,13.97 47.7,35.53 48.13,64.03 -0.43,28.59 -21.32,49.91 -48.13,64.01" /><path
         id="path28"
         style="fill:#ffffff;fill-opacity:1;fill-rule:nonzero;stroke:none"
         d="m 636.379,1225.68 c 6.539,7.94 13.406,16.79 20.984,27.06 l 1.711,2.26 c 7.09,9.39 15.117,20.02 23.117,20.02 0.266,0 0.539,-0.01 0.809,-0.04 23.027,-2.48 39.395,-13.77 58.34,-26.83 5.14,-3.55 10.476,-7.24 16.195,-10.92 3.516,-2.29 6.996,-4.9 10.356,-7.42 10.011,-7.5 20.351,-15.26 32.554,-15.26 h 0.008 c 1.637,0 3.297,0.14 4.934,0.41 h 0.047 c 3.711,0 5.847,4 8.113,8.23 1.168,2.17 2.367,4.42 3.855,6.25 l 0.192,0.23 0.125,0.28 c 2.019,4.48 -0.731,9.05 -2.379,11.78 -0.317,0.53 -0.598,0.98 -0.789,1.37 -1.68,3.39 -3.164,6.54 -4.59,9.55 -4.922,10.43 -9.176,19.42 -17.574,30.27 -9.52,12.33 -18.465,24.45 -27.121,36.17 -4.914,6.64 -9.84,13.32 -14.918,20.1 11.523,9.04 24.011,13.22 37.183,17.65 6.106,2.05 12.422,4.16 18.614,6.8 5.207,1.95 8.722,10.93 7.273,18.82 -0.926,4.56 -4.195,8.01 -6.961,9.73 l -0.477,0.3 -0.546,0.05 c -13.696,1.16 -26.454,4.48 -42.657,11.06 -7.894,1.74 -15.339,1.83 -22.543,1.93 -10.433,0.15 -20.277,0.28 -30.16,4.7 -4.644,2.23 -6.285,9.85 -7.734,16.58 -0.395,1.85 -0.781,3.64 -1.211,5.27 -0.977,3.63 -2.07,7.1 -3.16,10.59 -0.492,1.55 -0.981,3.12 -1.465,4.68 48.363,12.1 94.609,18.23 137.531,18.23 91.317,0 172.555,-25.69 234.905,-74.26 45.6,-35.42 85.37,-92.83 118.25,-170.68 -21.66,-3.57 -40.37,-9.23 -55.63,-16.83 -18.82,-9.13 -33.18,-22.36 -41.62,-38.33 -2.92,0.38 -5.71,0.51 -8.31,0.58 -8.16,-0.12 -16.05,-1.4 -21.84,-2.53 -12.78,54.46 -69.61,93.84 -136.138,93.93 -70.996,-0.09 -129.711,-44.61 -137.547,-103.84 -50.457,-2.12 -92.058,-9.95 -127.003,-23.89 l -22.723,95.95" /><path
         id="path30"
         style="fill:#ffffff;fill-opacity:1;fill-rule:nonzero;stroke:none"
         d="m 592.164,1412.35 c 14.59,6.33 29.414,11.79 43.481,16.74 -1.883,-5.94 -3.649,-11.66 -5.141,-17.39 -1.387,-2.5 -4.125,-4.74 -6.774,-6.9 -0.664,-0.55 -2.714,-2.29 -2.714,-2.29 v -5.78 c -6.239,-5.19 -12.977,-10.1 -21.461,-15.61 l -7.391,31.23" /><path
         id="path32"
         style="fill:#ffffff;fill-opacity:1;fill-rule:nonzero;stroke:none"
         d="m 667.59,1093.88 c 30.316,12.88 69.703,20.46 120.242,23.14 13.438,-53.49 70.188,-92.23 135.816,-92.4 69.555,0.18 128.252,43.82 137.322,101.77 h 0.01 c 7.9,1.81 15.58,2.88 20.58,2.88 0.49,0 0.91,-0.01 1.3,-0.04 2.82,-25.29 20.06,-46.91 48.71,-61.01 27.35,-13.59 63.19,-20.78 103.65,-20.78 1.23,0 2.42,0.09 3.61,0.18 0.28,0.02 0.56,0.05 0.83,0.06 6.68,-33.37 10.99,-64.391 11.65,-83.75 -7.93,-3.879 -28.9,-9.321 -44.42,-13.34 l -0.7,-0.192 c -34.91,-9 -74.31,-19.179 -92.83,-35.308 -30.56,-26.899 -2.87,-81.41 26.45,-139.102 13.67,-26.976 25.6,-51.179 32.59,-72.699 -64.39,9.52 -107.19,26.133 -143.02,55.441 -34.525,28.2 -62.833,69.059 -95.607,116.372 -3.992,5.777 -10.593,9.238 -17.664,9.238 -4.398,0 -8.652,-1.328 -12.3,-3.84 -4.711,-3.191 -7.895,-8.09 -8.946,-13.77 -1.05,-5.71 0.207,-11.46 3.52,-16.191 l 2.008,-2.891 c 33.445,-48.269 62.328,-89.957 101.679,-122.418 42.35,-34.718 94.89,-55.339 165.37,-64.898 4.6,-0.633 8.26,-1.082 11.77,-1.492 -0.09,-25.5 -8.66,-67.692 -61.89,-79.84 -9.51,-2.141 -19.79,-3.23 -30.56,-3.23 -25.01,0 -50.21,5.75 -73.71,11.941 -22.812,5.98 -44.023,11.551 -66.398,11.551 -25.339,0 -47.586,-7.321 -69.984,-23.043 -12.516,-8.61 -41.039,-28.231 -75.133,-47.899 L 667.59,1093.88" /><path
         id="path34"
         style="fill:#ffffff;fill-opacity:1;fill-rule:nonzero;stroke:none"
         d="m 674.715,866.082 c -19.055,2.066 -35.52,6.918 -47.777,14.117 -17.879,10.289 -26.583,22.762 -28.215,40.442 -0.442,5.73 -0.653,10.148 -0.653,13.839 0.172,21.122 4.641,34.399 15.946,47.372 6.511,7.367 15.98,14.628 28.156,21.568 l 32.543,-137.338" /><path
         id="path36"
         style="fill:#42ba43;fill-opacity:1;fill-rule:nonzero;stroke:none"
         d="m 1235.05,1083.96 c -34.17,0.1 -65.72,6.33 -87.09,17.09 -19.55,9.97 -29.46,21.76 -29.46,35.04 0,13.14 9.91,24.89 29.47,34.92 13.96,6.99 32.93,12.13 54.86,14.85 11.86,1.48 21.99,2.17 31.85,2.17 h 0.64 c 2.2,0 4.3,-0.16 6.42,-0.3 1.34,-0.1 2.68,-0.2 4.06,-0.26 29.1,-1.26 56.95,-7.78 76.4,-17.89 22.33,-11.64 29.95,-24.89 29.64,-33.42 0.3,-8.65 -7.32,-21.89 -29.65,-33.6 -12.16,-6.3 -28.21,-11.39 -46.42,-14.72 -14.34,-2.61 -27.61,-3.89 -40.55,-3.89 l -0.17,0.01" /><path
         id="path38"
         style="fill:#42ba43;fill-opacity:1;fill-rule:nonzero;stroke:none"
         d="m 923.648,1061.48 c -27.644,0 -54.582,8.92 -73.882,24.49 -18.336,15.02 -28.442,34.62 -28.442,55.19 0,20.41 10.106,40.02 28.461,55.19 19.426,15.56 46.352,24.49 73.863,24.49 27.469,0 54.43,-8.93 73.942,-24.51 18.39,-15.17 28.54,-34.77 28.54,-55.17 0,-20.55 -10.15,-40.15 -28.567,-55.2 -19.579,-15.79 -45.829,-24.48 -73.915,-24.48" /><path
         id="path40"
         style="fill:#f9dc2c;fill-opacity:1;fill-rule:nonzero;stroke:none"
         d="m 618.473,1242.42 c 2.976,10.97 4.965,21.59 6.511,30.53 0.688,3.93 1.352,7.89 2.02,11.94 0.84,5.01 1.691,10.17 2.648,15.53 0.852,3.59 2.614,7 4.489,10.62 1.3,2.52 2.648,5.12 3.828,8.05 2.551,6.57 2.117,13.14 -1.16,17.61 l -0.188,0.25 -0.238,0.18 c -2.188,1.75 -4.883,2.63 -8.004,2.63 -5.367,0 -10.672,-2.63 -13.367,-4.19 -0.914,-0.45 -2.157,-0.64 -3.465,-0.85 -1.129,-0.18 -2.266,-0.37 -3.383,-0.73 -6.285,-2.01 -12.738,-3.01 -19.176,-3.01 -4.765,0 -9.562,0.56 -14.324,1.65 3.246,3.9 7.426,6.14 11.492,8.34 1.93,1.05 3.789,2.05 5.477,3.17 4.398,2.21 8.89,4.49 13.332,7.1 3.379,1.99 7.781,4.77 11.855,8.55 0.973,0.83 2.477,1.39 3.934,1.93 2.152,0.81 4.578,1.73 5.773,3.94 1.34,1.45 2.762,2.8 4.215,4.17 4.012,3.81 8.156,7.74 11.25,14.09 8.824,13.98 12.832,30.58 16.715,46.61 0.664,2.74 1.328,5.49 2.02,8.23 1.511,6.02 3.211,12.36 5.398,18.6 2.02,-4.29 3.969,-9.01 5.984,-14.48 3.5,-9.51 6.387,-19.22 9.438,-29.49 3.555,-11.98 7.242,-24.37 12.008,-36.48 0.226,-0.97 1.215,-3.07 4.425,-3.07 0.532,0 1.114,0.06 1.711,0.13 0.481,0.05 0.973,0.1 1.457,0.1 0.961,0 1.372,-0.18 1.782,-1.19 l 1.152,-2.9 2.426,1.95 c 6.039,4.83 12.785,5.48 18.582,5.48 2.297,0 4.613,-0.11 6.914,-0.22 2.375,-0.12 4.746,-0.23 7.09,-0.23 1.269,0 2.617,0.1 4.004,0.22 1.351,0.11 2.742,0.23 4.156,0.23 2.723,0 5.812,-0.41 8.684,-2.99 -3.243,-1.69 -6.442,-3.45 -9.618,-5.21 -9.043,-4.98 -17.59,-9.69 -26.582,-12.55 l -0.328,-0.09 -0.281,-0.21 c -3.074,-2.11 -6.859,-7.57 -7.828,-13.52 -0.637,-3.94 0.09,-7.52 2.109,-10.37 1.387,-3.58 4.375,-5.62 7.02,-7.43 1.683,-1.15 3.265,-2.22 4.312,-3.57 17.551,-16.98 33.266,-36.94 48.192,-61.19 -0.168,-0.04 -0.344,-0.06 -0.516,-0.06 -1.957,0 -4.262,2.4 -6.5,4.71 l -1.48,1.54 c -10.618,8.73 -21.387,14.77 -31.786,20.6 -11.66,6.55 -23.714,13.3 -35.414,23.72 -2.984,2.63 -6.129,3.97 -9.343,3.97 -8.321,0 -15.223,-8.53 -22.512,-17.55 -3.703,-4.58 -7.528,-9.32 -11.375,-12.56 -8.641,-7.59 -15.735,-16.84 -22.598,-25.78 -1.711,-2.24 -3.426,-4.47 -5.164,-6.68 -0.801,-1.02 -1.586,-2.05 -2.383,-3.1 -1.8,-2.36 -3.531,-4.63 -5.39,-6.71 v 0.04" /><path
         id="path42"
         style="fill:#171514;fill-opacity:1;fill-rule:nonzero;stroke:none"
         d="m 699.801,497.309 h 2.969 c 3.476,0 6.277,1.16 6.277,3.953 0,2.488 -1.809,4.129 -5.785,4.129 -1.641,0 -2.797,-0.153 -3.461,-0.321 z m -0.16,-15.36 h -6.282 v 27.082 c 2.481,0.489 5.942,0.828 10.407,0.828 5.121,0 7.425,-0.828 9.414,-1.98 1.48,-1.168 2.64,-3.309 2.64,-5.949 0,-2.981 -2.308,-5.282 -5.613,-6.27 v -0.34 c 2.641,-0.98 4.129,-2.961 4.961,-6.601 0.82,-4.137 1.312,-5.778 1.973,-6.77 h -6.77 c -0.836,0.992 -1.324,3.473 -2.148,6.61 -0.493,2.972 -2.149,4.281 -5.614,4.281 h -2.968 z m -16.688,14.199 c 0,-12.058 8.926,-21.628 21.137,-21.628 11.898,0 20.648,9.57 20.648,21.46 0,12.071 -8.75,21.809 -20.808,21.809 -12.051,0 -20.977,-9.738 -20.977,-21.641 m 48.723,0 c 0,-15.359 -12.063,-27.41 -27.746,-27.41 -15.528,0 -27.903,12.051 -27.903,27.41 0,15.032 12.375,27.082 27.903,27.082 15.683,0 27.746,-12.05 27.746,-27.082" /></g></g></svg>